<?xml version="1.0" encoding="utf-8" standalone="no"?>
<!DOCTYPE svg PUBLIC "-//W3C//DTD SVG 1.1//EN"
  "http://www.w3.org/Graphics/SVG/1.1/DTD/svg11.dtd">
<svg xmlns:xlink="http://www.w3.org/1999/xlink" width="428.423437pt" height="321.95625pt" viewBox="0 0 428.423437 321.95625" xmlns="http://www.w3.org/2000/svg" version="1.1">
 <metadata>
  <rdf:RDF xmlns:dc="http://purl.org/dc/elements/1.1/" xmlns:cc="http://creativecommons.org/ns#" xmlns:rdf="http://www.w3.org/1999/02/22-rdf-syntax-ns#">
   <cc:Work>
    <dc:type rdf:resource="http://purl.org/dc/dcmitype/StillImage"/>
    <dc:date>2026-05-01T01:04:59.699967</dc:date>
    <dc:format>image/svg+xml</dc:format>
    <dc:creator>
     <cc:Agent>
      <dc:title>Matplotlib v3.8.4, https://matplotlib.org/</dc:title>
     </cc:Agent>
    </dc:creator>
   </cc:Work>
  </rdf:RDF>
 </metadata>
 <defs>
  <style type="text/css">*{stroke-linejoin: round; stroke-linecap: butt}</style>
 </defs>
 <g id="figure_1">
  <g id="patch_1">
   <path d="M 0 321.95625 
L 428.423437 321.95625 
L 428.423437 0 
L 0 0 
z
" style="fill: #ffffff"/>
  </g>
  <g id="axes_1">
   <g id="patch_2">
    <path d="M 58.523438 284.4 
L 421.223437 284.4 
L 421.223437 7.2 
L 58.523438 7.2 
z
" style="fill: #ffffff"/>
   </g>
   <g id="PathCollection_1">
    <defs>
     <path id="m27e6b0333a" d="M 0 3.354102 
C 0.889518 3.354102 1.742724 3.000693 2.371708 2.371708 
C 3.000693 1.742724 3.354102 0.889518 3.354102 0 
C 3.354102 -0.889518 3.000693 -1.742724 2.371708 -2.371708 
C 1.742724 -3.000693 0.889518 -3.354102 0 -3.354102 
C -0.889518 -3.354102 -1.742724 -3.000693 -2.371708 -2.371708 
C -3.000693 -1.742724 -3.354102 -0.889518 -3.354102 0 
C -3.354102 0.889518 -3.000693 1.742724 -2.371708 2.371708 
C -1.742724 3.000693 -0.889518 3.354102 0 3.354102 
z
" style="stroke: #1f77b4; stroke-opacity: 0.85"/>
    </defs>
    <g clip-path="url(#p161fe5765c)">
     <use xlink:href="#m27e6b0333a" x="155.034149" y="138.0037" style="fill: #1f77b4; fill-opacity: 0.85; stroke: #1f77b4; stroke-opacity: 0.85"/>
     <use xlink:href="#m27e6b0333a" x="206.590788" y="208.258642" style="fill: #1f77b4; fill-opacity: 0.85; stroke: #1f77b4; stroke-opacity: 0.85"/>
     <use xlink:href="#m27e6b0333a" x="180.323778" y="127.645297" style="fill: #1f77b4; fill-opacity: 0.85; stroke: #1f77b4; stroke-opacity: 0.85"/>
     <use xlink:href="#m27e6b0333a" x="191.102249" y="131.192697" style="fill: #1f77b4; fill-opacity: 0.85; stroke: #1f77b4; stroke-opacity: 0.85"/>
     <use xlink:href="#m27e6b0333a" x="175.35819" y="271.8" style="fill: #1f77b4; fill-opacity: 0.85; stroke: #1f77b4; stroke-opacity: 0.85"/>
     <use xlink:href="#m27e6b0333a" x="205.789866" y="172.888966" style="fill: #1f77b4; fill-opacity: 0.85; stroke: #1f77b4; stroke-opacity: 0.85"/>
     <use xlink:href="#m27e6b0333a" x="176.563433" y="106.769569" style="fill: #1f77b4; fill-opacity: 0.85; stroke: #1f77b4; stroke-opacity: 0.85"/>
     <use xlink:href="#m27e6b0333a" x="136.965639" y="126.241591" style="fill: #1f77b4; fill-opacity: 0.85; stroke: #1f77b4; stroke-opacity: 0.85"/>
     <use xlink:href="#m27e6b0333a" x="168.480536" y="265.516988" style="fill: #1f77b4; fill-opacity: 0.85; stroke: #1f77b4; stroke-opacity: 0.85"/>
     <use xlink:href="#m27e6b0333a" x="94.186545" y="53.473831" style="fill: #1f77b4; fill-opacity: 0.85; stroke: #1f77b4; stroke-opacity: 0.85"/>
     <use xlink:href="#m27e6b0333a" x="169.062411" y="163.333181" style="fill: #1f77b4; fill-opacity: 0.85; stroke: #1f77b4; stroke-opacity: 0.85"/>
     <use xlink:href="#m27e6b0333a" x="156.046576" y="155.372142" style="fill: #1f77b4; fill-opacity: 0.85; stroke: #1f77b4; stroke-opacity: 0.85"/>
     <use xlink:href="#m27e6b0333a" x="193.835132" y="102.172635" style="fill: #1f77b4; fill-opacity: 0.85; stroke: #1f77b4; stroke-opacity: 0.85"/>
     <use xlink:href="#m27e6b0333a" x="164.217593" y="140.755982" style="fill: #1f77b4; fill-opacity: 0.85; stroke: #1f77b4; stroke-opacity: 0.85"/>
     <use xlink:href="#m27e6b0333a" x="166.729606" y="150.942015" style="fill: #1f77b4; fill-opacity: 0.85; stroke: #1f77b4; stroke-opacity: 0.85"/>
     <use xlink:href="#m27e6b0333a" x="150.480343" y="228.898632" style="fill: #1f77b4; fill-opacity: 0.85; stroke: #1f77b4; stroke-opacity: 0.85"/>
     <use xlink:href="#m27e6b0333a" x="149.904154" y="157.37178" style="fill: #1f77b4; fill-opacity: 0.85; stroke: #1f77b4; stroke-opacity: 0.85"/>
     <use xlink:href="#m27e6b0333a" x="121.359803" y="106.309211" style="fill: #1f77b4; fill-opacity: 0.85; stroke: #1f77b4; stroke-opacity: 0.85"/>
     <use xlink:href="#m27e6b0333a" x="113.788312" y="83.634604" style="fill: #1f77b4; fill-opacity: 0.85; stroke: #1f77b4; stroke-opacity: 0.85"/>
     <use xlink:href="#m27e6b0333a" x="106.323942" y="73.311154" style="fill: #1f77b4; fill-opacity: 0.85; stroke: #1f77b4; stroke-opacity: 0.85"/>
     <use xlink:href="#m27e6b0333a" x="179.593191" y="157.901596" style="fill: #1f77b4; fill-opacity: 0.85; stroke: #1f77b4; stroke-opacity: 0.85"/>
     <use xlink:href="#m27e6b0333a" x="154.335935" y="108.025143" style="fill: #1f77b4; fill-opacity: 0.85; stroke: #1f77b4; stroke-opacity: 0.85"/>
     <use xlink:href="#m27e6b0333a" x="75.009801" y="117.898292" style="fill: #1f77b4; fill-opacity: 0.85; stroke: #1f77b4; stroke-opacity: 0.85"/>
     <use xlink:href="#m27e6b0333a" x="267.009067" y="218.331987" style="fill: #1f77b4; fill-opacity: 0.85; stroke: #1f77b4; stroke-opacity: 0.85"/>
     <use xlink:href="#m27e6b0333a" x="174.966104" y="159.930991" style="fill: #1f77b4; fill-opacity: 0.85; stroke: #1f77b4; stroke-opacity: 0.85"/>
     <use xlink:href="#m27e6b0333a" x="126.089496" y="180.332719" style="fill: #1f77b4; fill-opacity: 0.85; stroke: #1f77b4; stroke-opacity: 0.85"/>
     <use xlink:href="#m27e6b0333a" x="213.478945" y="165.544601" style="fill: #1f77b4; fill-opacity: 0.85; stroke: #1f77b4; stroke-opacity: 0.85"/>
     <use xlink:href="#m27e6b0333a" x="197.490756" y="152.775182" style="fill: #1f77b4; fill-opacity: 0.85; stroke: #1f77b4; stroke-opacity: 0.85"/>
     <use xlink:href="#m27e6b0333a" x="219.750478" y="148.485418" style="fill: #1f77b4; fill-opacity: 0.85; stroke: #1f77b4; stroke-opacity: 0.85"/>
     <use xlink:href="#m27e6b0333a" x="140.952835" y="89.279566" style="fill: #1f77b4; fill-opacity: 0.85; stroke: #1f77b4; stroke-opacity: 0.85"/>
     <use xlink:href="#m27e6b0333a" x="123.816452" y="167.772211" style="fill: #1f77b4; fill-opacity: 0.85; stroke: #1f77b4; stroke-opacity: 0.85"/>
     <use xlink:href="#m27e6b0333a" x="184.389753" y="107.003795" style="fill: #1f77b4; fill-opacity: 0.85; stroke: #1f77b4; stroke-opacity: 0.85"/>
     <use xlink:href="#m27e6b0333a" x="190.503354" y="138.531458" style="fill: #1f77b4; fill-opacity: 0.85; stroke: #1f77b4; stroke-opacity: 0.85"/>
     <use xlink:href="#m27e6b0333a" x="264.054833" y="144.574418" style="fill: #1f77b4; fill-opacity: 0.85; stroke: #1f77b4; stroke-opacity: 0.85"/>
     <use xlink:href="#m27e6b0333a" x="145.769964" y="91.116294" style="fill: #1f77b4; fill-opacity: 0.85; stroke: #1f77b4; stroke-opacity: 0.85"/>
     <use xlink:href="#m27e6b0333a" x="117.991346" y="180.734781" style="fill: #1f77b4; fill-opacity: 0.85; stroke: #1f77b4; stroke-opacity: 0.85"/>
     <use xlink:href="#m27e6b0333a" x="148.104054" y="93.140199" style="fill: #1f77b4; fill-opacity: 0.85; stroke: #1f77b4; stroke-opacity: 0.85"/>
     <use xlink:href="#m27e6b0333a" x="163.453524" y="130.54288" style="fill: #1f77b4; fill-opacity: 0.85; stroke: #1f77b4; stroke-opacity: 0.85"/>
     <use xlink:href="#m27e6b0333a" x="128.073528" y="149.950066" style="fill: #1f77b4; fill-opacity: 0.85; stroke: #1f77b4; stroke-opacity: 0.85"/>
     <use xlink:href="#m27e6b0333a" x="141.514023" y="76.073343" style="fill: #1f77b4; fill-opacity: 0.85; stroke: #1f77b4; stroke-opacity: 0.85"/>
     <use xlink:href="#m27e6b0333a" x="298.424095" y="183.448571" style="fill: #1f77b4; fill-opacity: 0.85; stroke: #1f77b4; stroke-opacity: 0.85"/>
     <use xlink:href="#m27e6b0333a" x="131.476301" y="87.176041" style="fill: #1f77b4; fill-opacity: 0.85; stroke: #1f77b4; stroke-opacity: 0.85"/>
     <use xlink:href="#m27e6b0333a" x="157.661193" y="111.361442" style="fill: #1f77b4; fill-opacity: 0.85; stroke: #1f77b4; stroke-opacity: 0.85"/>
     <use xlink:href="#m27e6b0333a" x="122.264672" y="93.495205" style="fill: #1f77b4; fill-opacity: 0.85; stroke: #1f77b4; stroke-opacity: 0.85"/>
     <use xlink:href="#m27e6b0333a" x="250.027277" y="260.074693" style="fill: #1f77b4; fill-opacity: 0.85; stroke: #1f77b4; stroke-opacity: 0.85"/>
    </g>
   </g>
   <g id="PathCollection_2">
    <defs>
     <path id="m451f608521" d="M 0 3.354102 
C 0.889518 3.354102 1.742724 3.000693 2.371708 2.371708 
C 3.000693 1.742724 3.354102 0.889518 3.354102 0 
C 3.354102 -0.889518 3.000693 -1.742724 2.371708 -2.371708 
C 1.742724 -3.000693 0.889518 -3.354102 0 -3.354102 
C -0.889518 -3.354102 -1.742724 -3.000693 -2.371708 -2.371708 
C -3.000693 -1.742724 -3.354102 -0.889518 -3.354102 0 
C -3.354102 0.889518 -3.000693 1.742724 -2.371708 2.371708 
C -1.742724 3.000693 -0.889518 3.354102 0 3.354102 
z
" style="stroke: #ff7f0e; stroke-opacity: 0.85"/>
    </defs>
    <g clip-path="url(#p161fe5765c)">
     <use xlink:href="#m451f608521" x="169.507099" y="64.639641" style="fill: #ff7f0e; fill-opacity: 0.85; stroke: #ff7f0e; stroke-opacity: 0.85"/>
     <use xlink:href="#m451f608521" x="253.264127" y="126.798007" style="fill: #ff7f0e; fill-opacity: 0.85; stroke: #ff7f0e; stroke-opacity: 0.85"/>
     <use xlink:href="#m451f608521" x="337.739988" y="76.296029" style="fill: #ff7f0e; fill-opacity: 0.85; stroke: #ff7f0e; stroke-opacity: 0.85"/>
     <use xlink:href="#m451f608521" x="215.338941" y="98.188176" style="fill: #ff7f0e; fill-opacity: 0.85; stroke: #ff7f0e; stroke-opacity: 0.85"/>
     <use xlink:href="#m451f608521" x="210.368584" y="131.878673" style="fill: #ff7f0e; fill-opacity: 0.85; stroke: #ff7f0e; stroke-opacity: 0.85"/>
     <use xlink:href="#m451f608521" x="335.839923" y="79.787135" style="fill: #ff7f0e; fill-opacity: 0.85; stroke: #ff7f0e; stroke-opacity: 0.85"/>
     <use xlink:href="#m451f608521" x="183.315561" y="37.130981" style="fill: #ff7f0e; fill-opacity: 0.85; stroke: #ff7f0e; stroke-opacity: 0.85"/>
     <use xlink:href="#m451f608521" x="171.438447" y="91.327152" style="fill: #ff7f0e; fill-opacity: 0.85; stroke: #ff7f0e; stroke-opacity: 0.85"/>
     <use xlink:href="#m451f608521" x="338.263462" y="160.638003" style="fill: #ff7f0e; fill-opacity: 0.85; stroke: #ff7f0e; stroke-opacity: 0.85"/>
     <use xlink:href="#m451f608521" x="193.754491" y="98.151044" style="fill: #ff7f0e; fill-opacity: 0.85; stroke: #ff7f0e; stroke-opacity: 0.85"/>
     <use xlink:href="#m451f608521" x="354.914429" y="148.884942" style="fill: #ff7f0e; fill-opacity: 0.85; stroke: #ff7f0e; stroke-opacity: 0.85"/>
     <use xlink:href="#m451f608521" x="179.406111" y="56.734713" style="fill: #ff7f0e; fill-opacity: 0.85; stroke: #ff7f0e; stroke-opacity: 0.85"/>
     <use xlink:href="#m451f608521" x="201.643295" y="63.415774" style="fill: #ff7f0e; fill-opacity: 0.85; stroke: #ff7f0e; stroke-opacity: 0.85"/>
     <use xlink:href="#m451f608521" x="374.041983" y="67.922422" style="fill: #ff7f0e; fill-opacity: 0.85; stroke: #ff7f0e; stroke-opacity: 0.85"/>
     <use xlink:href="#m451f608521" x="176.063354" y="59.52665" style="fill: #ff7f0e; fill-opacity: 0.85; stroke: #ff7f0e; stroke-opacity: 0.85"/>
     <use xlink:href="#m451f608521" x="391.943066" y="148.674968" style="fill: #ff7f0e; fill-opacity: 0.85; stroke: #ff7f0e; stroke-opacity: 0.85"/>
     <use xlink:href="#m451f608521" x="176.084614" y="148.593804" style="fill: #ff7f0e; fill-opacity: 0.85; stroke: #ff7f0e; stroke-opacity: 0.85"/>
     <use xlink:href="#m451f608521" x="347.180504" y="125.322954" style="fill: #ff7f0e; fill-opacity: 0.85; stroke: #ff7f0e; stroke-opacity: 0.85"/>
     <use xlink:href="#m451f608521" x="164.393138" y="40.398016" style="fill: #ff7f0e; fill-opacity: 0.85; stroke: #ff7f0e; stroke-opacity: 0.85"/>
     <use xlink:href="#m451f608521" x="225.938536" y="68.806578" style="fill: #ff7f0e; fill-opacity: 0.85; stroke: #ff7f0e; stroke-opacity: 0.85"/>
     <use xlink:href="#m451f608521" x="200.126001" y="35.810663" style="fill: #ff7f0e; fill-opacity: 0.85; stroke: #ff7f0e; stroke-opacity: 0.85"/>
     <use xlink:href="#m451f608521" x="167.604773" y="76.224302" style="fill: #ff7f0e; fill-opacity: 0.85; stroke: #ff7f0e; stroke-opacity: 0.85"/>
     <use xlink:href="#m451f608521" x="238.633223" y="83.021623" style="fill: #ff7f0e; fill-opacity: 0.85; stroke: #ff7f0e; stroke-opacity: 0.85"/>
     <use xlink:href="#m451f608521" x="167.129332" y="63.322315" style="fill: #ff7f0e; fill-opacity: 0.85; stroke: #ff7f0e; stroke-opacity: 0.85"/>
     <use xlink:href="#m451f608521" x="187.974014" y="110.473959" style="fill: #ff7f0e; fill-opacity: 0.85; stroke: #ff7f0e; stroke-opacity: 0.85"/>
     <use xlink:href="#m451f608521" x="214.548104" y="68.677529" style="fill: #ff7f0e; fill-opacity: 0.85; stroke: #ff7f0e; stroke-opacity: 0.85"/>
     <use xlink:href="#m451f608521" x="165.549083" y="151.273003" style="fill: #ff7f0e; fill-opacity: 0.85; stroke: #ff7f0e; stroke-opacity: 0.85"/>
     <use xlink:href="#m451f608521" x="226.370109" y="54.919931" style="fill: #ff7f0e; fill-opacity: 0.85; stroke: #ff7f0e; stroke-opacity: 0.85"/>
     <use xlink:href="#m451f608521" x="217.619194" y="88.45134" style="fill: #ff7f0e; fill-opacity: 0.85; stroke: #ff7f0e; stroke-opacity: 0.85"/>
     <use xlink:href="#m451f608521" x="205.806545" y="99.908444" style="fill: #ff7f0e; fill-opacity: 0.85; stroke: #ff7f0e; stroke-opacity: 0.85"/>
     <use xlink:href="#m451f608521" x="178.359338" y="62.60543" style="fill: #ff7f0e; fill-opacity: 0.85; stroke: #ff7f0e; stroke-opacity: 0.85"/>
     <use xlink:href="#m451f608521" x="202.431926" y="98.409579" style="fill: #ff7f0e; fill-opacity: 0.85; stroke: #ff7f0e; stroke-opacity: 0.85"/>
     <use xlink:href="#m451f608521" x="214.186339" y="32.193771" style="fill: #ff7f0e; fill-opacity: 0.85; stroke: #ff7f0e; stroke-opacity: 0.85"/>
     <use xlink:href="#m451f608521" x="187.931372" y="40.158453" style="fill: #ff7f0e; fill-opacity: 0.85; stroke: #ff7f0e; stroke-opacity: 0.85"/>
     <use xlink:href="#m451f608521" x="342.483703" y="90.474781" style="fill: #ff7f0e; fill-opacity: 0.85; stroke: #ff7f0e; stroke-opacity: 0.85"/>
     <use xlink:href="#m451f608521" x="370.309499" y="97.456753" style="fill: #ff7f0e; fill-opacity: 0.85; stroke: #ff7f0e; stroke-opacity: 0.85"/>
     <use xlink:href="#m451f608521" x="390.578394" y="157.808507" style="fill: #ff7f0e; fill-opacity: 0.85; stroke: #ff7f0e; stroke-opacity: 0.85"/>
     <use xlink:href="#m451f608521" x="404.737074" y="83.464378" style="fill: #ff7f0e; fill-opacity: 0.85; stroke: #ff7f0e; stroke-opacity: 0.85"/>
     <use xlink:href="#m451f608521" x="363.405156" y="100.606839" style="fill: #ff7f0e; fill-opacity: 0.85; stroke: #ff7f0e; stroke-opacity: 0.85"/>
     <use xlink:href="#m451f608521" x="334.458287" y="83.854058" style="fill: #ff7f0e; fill-opacity: 0.85; stroke: #ff7f0e; stroke-opacity: 0.85"/>
     <use xlink:href="#m451f608521" x="299.257985" y="91.038896" style="fill: #ff7f0e; fill-opacity: 0.85; stroke: #ff7f0e; stroke-opacity: 0.85"/>
     <use xlink:href="#m451f608521" x="210.965244" y="19.8" style="fill: #ff7f0e; fill-opacity: 0.85; stroke: #ff7f0e; stroke-opacity: 0.85"/>
     <use xlink:href="#m451f608521" x="212.414722" y="99.342179" style="fill: #ff7f0e; fill-opacity: 0.85; stroke: #ff7f0e; stroke-opacity: 0.85"/>
     <use xlink:href="#m451f608521" x="196.280965" y="67.276465" style="fill: #ff7f0e; fill-opacity: 0.85; stroke: #ff7f0e; stroke-opacity: 0.85"/>
     <use xlink:href="#m451f608521" x="214.720145" y="86.154644" style="fill: #ff7f0e; fill-opacity: 0.85; stroke: #ff7f0e; stroke-opacity: 0.85"/>
     <use xlink:href="#m451f608521" x="383.361985" y="132.385061" style="fill: #ff7f0e; fill-opacity: 0.85; stroke: #ff7f0e; stroke-opacity: 0.85"/>
    </g>
   </g>
   <g id="matplotlib.axis_1">
    <g id="xtick_1">
     <g id="line2d_1">
      <path d="M 87.846505 284.4 
L 87.846505 7.2 
" clip-path="url(#p161fe5765c)" style="fill: none; stroke: #b0b0b0; stroke-opacity: 0.4; stroke-width: 0.3; stroke-linecap: square"/>
     </g>
     <g id="line2d_2">
      <defs>
       <path id="mfc9b373f18" d="M 0 0 
L 0 3.5 
" style="stroke: #000000; stroke-width: 0.8"/>
      </defs>
      <g>
       <use xlink:href="#mfc9b373f18" x="87.846505" y="284.4" style="stroke: #000000; stroke-width: 0.8"/>
      </g>
     </g>
     <g id="text_1">
      <!-- −6 -->
      <g transform="translate(80.475411 298.998438) scale(0.1 -0.1)">
       <defs>
        <path id="DejaVuSans-2212" d="M 678 2272 
L 4684 2272 
L 4684 1741 
L 678 1741 
L 678 2272 
z
" transform="scale(0.015625)"/>
        <path id="DejaVuSans-36" d="M 2113 2584 
Q 1688 2584 1439 2293 
Q 1191 2003 1191 1497 
Q 1191 994 1439 701 
Q 1688 409 2113 409 
Q 2538 409 2786 701 
Q 3034 994 3034 1497 
Q 3034 2003 2786 2293 
Q 2538 2584 2113 2584 
z
M 3366 4563 
L 3366 3988 
Q 3128 4100 2886 4159 
Q 2644 4219 2406 4219 
Q 1781 4219 1451 3797 
Q 1122 3375 1075 2522 
Q 1259 2794 1537 2939 
Q 1816 3084 2150 3084 
Q 2853 3084 3261 2657 
Q 3669 2231 3669 1497 
Q 3669 778 3244 343 
Q 2819 -91 2113 -91 
Q 1303 -91 875 529 
Q 447 1150 447 2328 
Q 447 3434 972 4092 
Q 1497 4750 2381 4750 
Q 2619 4750 2861 4703 
Q 3103 4656 3366 4563 
z
" transform="scale(0.015625)"/>
       </defs>
       <use xlink:href="#DejaVuSans-2212"/>
       <use xlink:href="#DejaVuSans-36" x="83.789062"/>
      </g>
     </g>
    </g>
    <g id="xtick_2">
     <g id="line2d_3">
      <path d="M 128.14685 284.4 
L 128.14685 7.2 
" clip-path="url(#p161fe5765c)" style="fill: none; stroke: #b0b0b0; stroke-opacity: 0.4; stroke-width: 0.3; stroke-linecap: square"/>
     </g>
     <g id="line2d_4">
      <g>
       <use xlink:href="#mfc9b373f18" x="128.14685" y="284.4" style="stroke: #000000; stroke-width: 0.8"/>
      </g>
     </g>
     <g id="text_2">
      <!-- −4 -->
      <g transform="translate(120.775756 298.998438) scale(0.1 -0.1)">
       <defs>
        <path id="DejaVuSans-34" d="M 2419 4116 
L 825 1625 
L 2419 1625 
L 2419 4116 
z
M 2253 4666 
L 3047 4666 
L 3047 1625 
L 3713 1625 
L 3713 1100 
L 3047 1100 
L 3047 0 
L 2419 0 
L 2419 1100 
L 313 1100 
L 313 1709 
L 2253 4666 
z
" transform="scale(0.015625)"/>
       </defs>
       <use xlink:href="#DejaVuSans-2212"/>
       <use xlink:href="#DejaVuSans-34" x="83.789062"/>
      </g>
     </g>
    </g>
    <g id="xtick_3">
     <g id="line2d_5">
      <path d="M 168.447195 284.4 
L 168.447195 7.2 
" clip-path="url(#p161fe5765c)" style="fill: none; stroke: #b0b0b0; stroke-opacity: 0.4; stroke-width: 0.3; stroke-linecap: square"/>
     </g>
     <g id="line2d_6">
      <g>
       <use xlink:href="#mfc9b373f18" x="168.447195" y="284.4" style="stroke: #000000; stroke-width: 0.8"/>
      </g>
     </g>
     <g id="text_3">
      <!-- −2 -->
      <g transform="translate(161.076102 298.998438) scale(0.1 -0.1)">
       <defs>
        <path id="DejaVuSans-32" d="M 1228 531 
L 3431 531 
L 3431 0 
L 469 0 
L 469 531 
Q 828 903 1448 1529 
Q 2069 2156 2228 2338 
Q 2531 2678 2651 2914 
Q 2772 3150 2772 3378 
Q 2772 3750 2511 3984 
Q 2250 4219 1831 4219 
Q 1534 4219 1204 4116 
Q 875 4013 500 3803 
L 500 4441 
Q 881 4594 1212 4672 
Q 1544 4750 1819 4750 
Q 2544 4750 2975 4387 
Q 3406 4025 3406 3419 
Q 3406 3131 3298 2873 
Q 3191 2616 2906 2266 
Q 2828 2175 2409 1742 
Q 1991 1309 1228 531 
z
" transform="scale(0.015625)"/>
       </defs>
       <use xlink:href="#DejaVuSans-2212"/>
       <use xlink:href="#DejaVuSans-32" x="83.789062"/>
      </g>
     </g>
    </g>
    <g id="xtick_4">
     <g id="line2d_7">
      <path d="M 208.74754 284.4 
L 208.74754 7.2 
" clip-path="url(#p161fe5765c)" style="fill: none; stroke: #b0b0b0; stroke-opacity: 0.4; stroke-width: 0.3; stroke-linecap: square"/>
     </g>
     <g id="line2d_8">
      <g>
       <use xlink:href="#mfc9b373f18" x="208.74754" y="284.4" style="stroke: #000000; stroke-width: 0.8"/>
      </g>
     </g>
     <g id="text_4">
      <!-- 0 -->
      <g transform="translate(205.56629 298.998438) scale(0.1 -0.1)">
       <defs>
        <path id="DejaVuSans-30" d="M 2034 4250 
Q 1547 4250 1301 3770 
Q 1056 3291 1056 2328 
Q 1056 1369 1301 889 
Q 1547 409 2034 409 
Q 2525 409 2770 889 
Q 3016 1369 3016 2328 
Q 3016 3291 2770 3770 
Q 2525 4250 2034 4250 
z
M 2034 4750 
Q 2819 4750 3233 4129 
Q 3647 3509 3647 2328 
Q 3647 1150 3233 529 
Q 2819 -91 2034 -91 
Q 1250 -91 836 529 
Q 422 1150 422 2328 
Q 422 3509 836 4129 
Q 1250 4750 2034 4750 
z
" transform="scale(0.015625)"/>
       </defs>
       <use xlink:href="#DejaVuSans-30"/>
      </g>
     </g>
    </g>
    <g id="xtick_5">
     <g id="line2d_9">
      <path d="M 249.047886 284.4 
L 249.047886 7.2 
" clip-path="url(#p161fe5765c)" style="fill: none; stroke: #b0b0b0; stroke-opacity: 0.4; stroke-width: 0.3; stroke-linecap: square"/>
     </g>
     <g id="line2d_10">
      <g>
       <use xlink:href="#mfc9b373f18" x="249.047886" y="284.4" style="stroke: #000000; stroke-width: 0.8"/>
      </g>
     </g>
     <g id="text_5">
      <!-- 2 -->
      <g transform="translate(245.866636 298.998438) scale(0.1 -0.1)">
       <use xlink:href="#DejaVuSans-32"/>
      </g>
     </g>
    </g>
    <g id="xtick_6">
     <g id="line2d_11">
      <path d="M 289.348231 284.4 
L 289.348231 7.2 
" clip-path="url(#p161fe5765c)" style="fill: none; stroke: #b0b0b0; stroke-opacity: 0.4; stroke-width: 0.3; stroke-linecap: square"/>
     </g>
     <g id="line2d_12">
      <g>
       <use xlink:href="#mfc9b373f18" x="289.348231" y="284.4" style="stroke: #000000; stroke-width: 0.8"/>
      </g>
     </g>
     <g id="text_6">
      <!-- 4 -->
      <g transform="translate(286.166981 298.998438) scale(0.1 -0.1)">
       <use xlink:href="#DejaVuSans-34"/>
      </g>
     </g>
    </g>
    <g id="xtick_7">
     <g id="line2d_13">
      <path d="M 329.648576 284.4 
L 329.648576 7.2 
" clip-path="url(#p161fe5765c)" style="fill: none; stroke: #b0b0b0; stroke-opacity: 0.4; stroke-width: 0.3; stroke-linecap: square"/>
     </g>
     <g id="line2d_14">
      <g>
       <use xlink:href="#mfc9b373f18" x="329.648576" y="284.4" style="stroke: #000000; stroke-width: 0.8"/>
      </g>
     </g>
     <g id="text_7">
      <!-- 6 -->
      <g transform="translate(326.467326 298.998438) scale(0.1 -0.1)">
       <use xlink:href="#DejaVuSans-36"/>
      </g>
     </g>
    </g>
    <g id="xtick_8">
     <g id="line2d_15">
      <path d="M 369.948921 284.4 
L 369.948921 7.2 
" clip-path="url(#p161fe5765c)" style="fill: none; stroke: #b0b0b0; stroke-opacity: 0.4; stroke-width: 0.3; stroke-linecap: square"/>
     </g>
     <g id="line2d_16">
      <g>
       <use xlink:href="#mfc9b373f18" x="369.948921" y="284.4" style="stroke: #000000; stroke-width: 0.8"/>
      </g>
     </g>
     <g id="text_8">
      <!-- 8 -->
      <g transform="translate(366.767671 298.998438) scale(0.1 -0.1)">
       <defs>
        <path id="DejaVuSans-38" d="M 2034 2216 
Q 1584 2216 1326 1975 
Q 1069 1734 1069 1313 
Q 1069 891 1326 650 
Q 1584 409 2034 409 
Q 2484 409 2743 651 
Q 3003 894 3003 1313 
Q 3003 1734 2745 1975 
Q 2488 2216 2034 2216 
z
M 1403 2484 
Q 997 2584 770 2862 
Q 544 3141 544 3541 
Q 544 4100 942 4425 
Q 1341 4750 2034 4750 
Q 2731 4750 3128 4425 
Q 3525 4100 3525 3541 
Q 3525 3141 3298 2862 
Q 3072 2584 2669 2484 
Q 3125 2378 3379 2068 
Q 3634 1759 3634 1313 
Q 3634 634 3220 271 
Q 2806 -91 2034 -91 
Q 1263 -91 848 271 
Q 434 634 434 1313 
Q 434 1759 690 2068 
Q 947 2378 1403 2484 
z
M 1172 3481 
Q 1172 3119 1398 2916 
Q 1625 2713 2034 2713 
Q 2441 2713 2670 2916 
Q 2900 3119 2900 3481 
Q 2900 3844 2670 4047 
Q 2441 4250 2034 4250 
Q 1625 4250 1398 4047 
Q 1172 3844 1172 3481 
z
" transform="scale(0.015625)"/>
       </defs>
       <use xlink:href="#DejaVuSans-38"/>
      </g>
     </g>
    </g>
    <g id="xtick_9">
     <g id="line2d_17">
      <path d="M 410.249266 284.4 
L 410.249266 7.2 
" clip-path="url(#p161fe5765c)" style="fill: none; stroke: #b0b0b0; stroke-opacity: 0.4; stroke-width: 0.3; stroke-linecap: square"/>
     </g>
     <g id="line2d_18">
      <g>
       <use xlink:href="#mfc9b373f18" x="410.249266" y="284.4" style="stroke: #000000; stroke-width: 0.8"/>
      </g>
     </g>
     <g id="text_9">
      <!-- 10 -->
      <g transform="translate(403.886766 298.998438) scale(0.1 -0.1)">
       <defs>
        <path id="DejaVuSans-31" d="M 794 531 
L 1825 531 
L 1825 4091 
L 703 3866 
L 703 4441 
L 1819 4666 
L 2450 4666 
L 2450 531 
L 3481 531 
L 3481 0 
L 794 0 
L 794 531 
z
" transform="scale(0.015625)"/>
       </defs>
       <use xlink:href="#DejaVuSans-31"/>
       <use xlink:href="#DejaVuSans-30" x="63.623047"/>
      </g>
     </g>
    </g>
    <g id="text_10">
     <!-- PC1 (7.3%) -->
     <g transform="translate(211.992969 312.676562) scale(0.1 -0.1)">
      <defs>
       <path id="DejaVuSans-50" d="M 1259 4147 
L 1259 2394 
L 2053 2394 
Q 2494 2394 2734 2622 
Q 2975 2850 2975 3272 
Q 2975 3691 2734 3919 
Q 2494 4147 2053 4147 
L 1259 4147 
z
M 628 4666 
L 2053 4666 
Q 2838 4666 3239 4311 
Q 3641 3956 3641 3272 
Q 3641 2581 3239 2228 
Q 2838 1875 2053 1875 
L 1259 1875 
L 1259 0 
L 628 0 
L 628 4666 
z
" transform="scale(0.015625)"/>
       <path id="DejaVuSans-43" d="M 4122 4306 
L 4122 3641 
Q 3803 3938 3442 4084 
Q 3081 4231 2675 4231 
Q 1875 4231 1450 3742 
Q 1025 3253 1025 2328 
Q 1025 1406 1450 917 
Q 1875 428 2675 428 
Q 3081 428 3442 575 
Q 3803 722 4122 1019 
L 4122 359 
Q 3791 134 3420 21 
Q 3050 -91 2638 -91 
Q 1578 -91 968 557 
Q 359 1206 359 2328 
Q 359 3453 968 4101 
Q 1578 4750 2638 4750 
Q 3056 4750 3426 4639 
Q 3797 4528 4122 4306 
z
" transform="scale(0.015625)"/>
       <path id="DejaVuSans-20" transform="scale(0.015625)"/>
       <path id="DejaVuSans-28" d="M 1984 4856 
Q 1566 4138 1362 3434 
Q 1159 2731 1159 2009 
Q 1159 1288 1364 580 
Q 1569 -128 1984 -844 
L 1484 -844 
Q 1016 -109 783 600 
Q 550 1309 550 2009 
Q 550 2706 781 3412 
Q 1013 4119 1484 4856 
L 1984 4856 
z
" transform="scale(0.015625)"/>
       <path id="DejaVuSans-37" d="M 525 4666 
L 3525 4666 
L 3525 4397 
L 1831 0 
L 1172 0 
L 2766 4134 
L 525 4134 
L 525 4666 
z
" transform="scale(0.015625)"/>
       <path id="DejaVuSans-2e" d="M 684 794 
L 1344 794 
L 1344 0 
L 684 0 
L 684 794 
z
" transform="scale(0.015625)"/>
       <path id="DejaVuSans-33" d="M 2597 2516 
Q 3050 2419 3304 2112 
Q 3559 1806 3559 1356 
Q 3559 666 3084 287 
Q 2609 -91 1734 -91 
Q 1441 -91 1130 -33 
Q 819 25 488 141 
L 488 750 
Q 750 597 1062 519 
Q 1375 441 1716 441 
Q 2309 441 2620 675 
Q 2931 909 2931 1356 
Q 2931 1769 2642 2001 
Q 2353 2234 1838 2234 
L 1294 2234 
L 1294 2753 
L 1863 2753 
Q 2328 2753 2575 2939 
Q 2822 3125 2822 3475 
Q 2822 3834 2567 4026 
Q 2313 4219 1838 4219 
Q 1578 4219 1281 4162 
Q 984 4106 628 3988 
L 628 4550 
Q 988 4650 1302 4700 
Q 1616 4750 1894 4750 
Q 2613 4750 3031 4423 
Q 3450 4097 3450 3541 
Q 3450 3153 3228 2886 
Q 3006 2619 2597 2516 
z
" transform="scale(0.015625)"/>
       <path id="DejaVuSans-25" d="M 4653 2053 
Q 4381 2053 4226 1822 
Q 4072 1591 4072 1178 
Q 4072 772 4226 539 
Q 4381 306 4653 306 
Q 4919 306 5073 539 
Q 5228 772 5228 1178 
Q 5228 1588 5073 1820 
Q 4919 2053 4653 2053 
z
M 4653 2450 
Q 5147 2450 5437 2106 
Q 5728 1763 5728 1178 
Q 5728 594 5436 251 
Q 5144 -91 4653 -91 
Q 4153 -91 3862 251 
Q 3572 594 3572 1178 
Q 3572 1766 3864 2108 
Q 4156 2450 4653 2450 
z
M 1428 4353 
Q 1159 4353 1004 4120 
Q 850 3888 850 3481 
Q 850 3069 1003 2837 
Q 1156 2606 1428 2606 
Q 1700 2606 1854 2837 
Q 2009 3069 2009 3481 
Q 2009 3884 1853 4118 
Q 1697 4353 1428 4353 
z
M 4250 4750 
L 4750 4750 
L 1831 -91 
L 1331 -91 
L 4250 4750 
z
M 1428 4750 
Q 1922 4750 2215 4408 
Q 2509 4066 2509 3481 
Q 2509 2891 2217 2550 
Q 1925 2209 1428 2209 
Q 931 2209 642 2551 
Q 353 2894 353 3481 
Q 353 4063 643 4406 
Q 934 4750 1428 4750 
z
" transform="scale(0.015625)"/>
       <path id="DejaVuSans-29" d="M 513 4856 
L 1013 4856 
Q 1481 4119 1714 3412 
Q 1947 2706 1947 2009 
Q 1947 1309 1714 600 
Q 1481 -109 1013 -844 
L 513 -844 
Q 928 -128 1133 580 
Q 1338 1288 1338 2009 
Q 1338 2731 1133 3434 
Q 928 4138 513 4856 
z
" transform="scale(0.015625)"/>
      </defs>
      <use xlink:href="#DejaVuSans-50"/>
      <use xlink:href="#DejaVuSans-43" x="60.302734"/>
      <use xlink:href="#DejaVuSans-31" x="130.126953"/>
      <use xlink:href="#DejaVuSans-20" x="193.75"/>
      <use xlink:href="#DejaVuSans-28" x="225.537109"/>
      <use xlink:href="#DejaVuSans-37" x="264.550781"/>
      <use xlink:href="#DejaVuSans-2e" x="328.173828"/>
      <use xlink:href="#DejaVuSans-33" x="359.960938"/>
      <use xlink:href="#DejaVuSans-25" x="423.583984"/>
      <use xlink:href="#DejaVuSans-29" x="518.603516"/>
     </g>
    </g>
   </g>
   <g id="matplotlib.axis_2">
    <g id="ytick_1">
     <g id="line2d_19">
      <path d="M 58.523438 268.469698 
L 421.223437 268.469698 
" clip-path="url(#p161fe5765c)" style="fill: none; stroke: #b0b0b0; stroke-opacity: 0.4; stroke-width: 0.3; stroke-linecap: square"/>
     </g>
     <g id="line2d_20">
      <defs>
       <path id="m852b02aadf" d="M 0 0 
L -3.5 0 
" style="stroke: #000000; stroke-width: 0.8"/>
      </defs>
      <g>
       <use xlink:href="#m852b02aadf" x="58.523438" y="268.469698" style="stroke: #000000; stroke-width: 0.8"/>
      </g>
     </g>
     <g id="text_11">
      <!-- −10.0 -->
      <g transform="translate(20.878125 272.268917) scale(0.1 -0.1)">
       <use xlink:href="#DejaVuSans-2212"/>
       <use xlink:href="#DejaVuSans-31" x="83.789062"/>
       <use xlink:href="#DejaVuSans-30" x="147.412109"/>
       <use xlink:href="#DejaVuSans-2e" x="211.035156"/>
       <use xlink:href="#DejaVuSans-30" x="242.822266"/>
      </g>
     </g>
    </g>
    <g id="ytick_2">
     <g id="line2d_21">
      <path d="M 58.523438 230.323763 
L 421.223437 230.323763 
" clip-path="url(#p161fe5765c)" style="fill: none; stroke: #b0b0b0; stroke-opacity: 0.4; stroke-width: 0.3; stroke-linecap: square"/>
     </g>
     <g id="line2d_22">
      <g>
       <use xlink:href="#m852b02aadf" x="58.523438" y="230.323763" style="stroke: #000000; stroke-width: 0.8"/>
      </g>
     </g>
     <g id="text_12">
      <!-- −7.5 -->
      <g transform="translate(27.240625 234.122982) scale(0.1 -0.1)">
       <defs>
        <path id="DejaVuSans-35" d="M 691 4666 
L 3169 4666 
L 3169 4134 
L 1269 4134 
L 1269 2991 
Q 1406 3038 1543 3061 
Q 1681 3084 1819 3084 
Q 2600 3084 3056 2656 
Q 3513 2228 3513 1497 
Q 3513 744 3044 326 
Q 2575 -91 1722 -91 
Q 1428 -91 1123 -41 
Q 819 9 494 109 
L 494 744 
Q 775 591 1075 516 
Q 1375 441 1709 441 
Q 2250 441 2565 725 
Q 2881 1009 2881 1497 
Q 2881 1984 2565 2268 
Q 2250 2553 1709 2553 
Q 1456 2553 1204 2497 
Q 953 2441 691 2322 
L 691 4666 
z
" transform="scale(0.015625)"/>
       </defs>
       <use xlink:href="#DejaVuSans-2212"/>
       <use xlink:href="#DejaVuSans-37" x="83.789062"/>
       <use xlink:href="#DejaVuSans-2e" x="147.412109"/>
       <use xlink:href="#DejaVuSans-35" x="179.199219"/>
      </g>
     </g>
    </g>
    <g id="ytick_3">
     <g id="line2d_23">
      <path d="M 58.523438 192.177828 
L 421.223437 192.177828 
" clip-path="url(#p161fe5765c)" style="fill: none; stroke: #b0b0b0; stroke-opacity: 0.4; stroke-width: 0.3; stroke-linecap: square"/>
     </g>
     <g id="line2d_24">
      <g>
       <use xlink:href="#m852b02aadf" x="58.523438" y="192.177828" style="stroke: #000000; stroke-width: 0.8"/>
      </g>
     </g>
     <g id="text_13">
      <!-- −5.0 -->
      <g transform="translate(27.240625 195.977046) scale(0.1 -0.1)">
       <use xlink:href="#DejaVuSans-2212"/>
       <use xlink:href="#DejaVuSans-35" x="83.789062"/>
       <use xlink:href="#DejaVuSans-2e" x="147.412109"/>
       <use xlink:href="#DejaVuSans-30" x="179.199219"/>
      </g>
     </g>
    </g>
    <g id="ytick_4">
     <g id="line2d_25">
      <path d="M 58.523438 154.031892 
L 421.223437 154.031892 
" clip-path="url(#p161fe5765c)" style="fill: none; stroke: #b0b0b0; stroke-opacity: 0.4; stroke-width: 0.3; stroke-linecap: square"/>
     </g>
     <g id="line2d_26">
      <g>
       <use xlink:href="#m852b02aadf" x="58.523438" y="154.031892" style="stroke: #000000; stroke-width: 0.8"/>
      </g>
     </g>
     <g id="text_14">
      <!-- −2.5 -->
      <g transform="translate(27.240625 157.831111) scale(0.1 -0.1)">
       <use xlink:href="#DejaVuSans-2212"/>
       <use xlink:href="#DejaVuSans-32" x="83.789062"/>
       <use xlink:href="#DejaVuSans-2e" x="147.412109"/>
       <use xlink:href="#DejaVuSans-35" x="179.199219"/>
      </g>
     </g>
    </g>
    <g id="ytick_5">
     <g id="line2d_27">
      <path d="M 58.523438 115.885957 
L 421.223437 115.885957 
" clip-path="url(#p161fe5765c)" style="fill: none; stroke: #b0b0b0; stroke-opacity: 0.4; stroke-width: 0.3; stroke-linecap: square"/>
     </g>
     <g id="line2d_28">
      <g>
       <use xlink:href="#m852b02aadf" x="58.523438" y="115.885957" style="stroke: #000000; stroke-width: 0.8"/>
      </g>
     </g>
     <g id="text_15">
      <!-- 0.0 -->
      <g transform="translate(35.620313 119.685176) scale(0.1 -0.1)">
       <use xlink:href="#DejaVuSans-30"/>
       <use xlink:href="#DejaVuSans-2e" x="63.623047"/>
       <use xlink:href="#DejaVuSans-30" x="95.410156"/>
      </g>
     </g>
    </g>
    <g id="ytick_6">
     <g id="line2d_29">
      <path d="M 58.523438 77.740022 
L 421.223437 77.740022 
" clip-path="url(#p161fe5765c)" style="fill: none; stroke: #b0b0b0; stroke-opacity: 0.4; stroke-width: 0.3; stroke-linecap: square"/>
     </g>
     <g id="line2d_30">
      <g>
       <use xlink:href="#m852b02aadf" x="58.523438" y="77.740022" style="stroke: #000000; stroke-width: 0.8"/>
      </g>
     </g>
     <g id="text_16">
      <!-- 2.5 -->
      <g transform="translate(35.620313 81.53924) scale(0.1 -0.1)">
       <use xlink:href="#DejaVuSans-32"/>
       <use xlink:href="#DejaVuSans-2e" x="63.623047"/>
       <use xlink:href="#DejaVuSans-35" x="95.410156"/>
      </g>
     </g>
    </g>
    <g id="ytick_7">
     <g id="line2d_31">
      <path d="M 58.523438 39.594086 
L 421.223437 39.594086 
" clip-path="url(#p161fe5765c)" style="fill: none; stroke: #b0b0b0; stroke-opacity: 0.4; stroke-width: 0.3; stroke-linecap: square"/>
     </g>
     <g id="line2d_32">
      <g>
       <use xlink:href="#m852b02aadf" x="58.523438" y="39.594086" style="stroke: #000000; stroke-width: 0.8"/>
      </g>
     </g>
     <g id="text_17">
      <!-- 5.0 -->
      <g transform="translate(35.620313 43.393305) scale(0.1 -0.1)">
       <use xlink:href="#DejaVuSans-35"/>
       <use xlink:href="#DejaVuSans-2e" x="63.623047"/>
       <use xlink:href="#DejaVuSans-30" x="95.410156"/>
      </g>
     </g>
    </g>
    <g id="text_18">
     <!-- PC2 (5.7%) -->
     <g transform="translate(14.798438 173.680469) rotate(-90) scale(0.1 -0.1)">
      <use xlink:href="#DejaVuSans-50"/>
      <use xlink:href="#DejaVuSans-43" x="60.302734"/>
      <use xlink:href="#DejaVuSans-32" x="130.126953"/>
      <use xlink:href="#DejaVuSans-20" x="193.75"/>
      <use xlink:href="#DejaVuSans-28" x="225.537109"/>
      <use xlink:href="#DejaVuSans-35" x="264.550781"/>
      <use xlink:href="#DejaVuSans-2e" x="328.173828"/>
      <use xlink:href="#DejaVuSans-37" x="359.960938"/>
      <use xlink:href="#DejaVuSans-25" x="423.583984"/>
      <use xlink:href="#DejaVuSans-29" x="518.603516"/>
     </g>
    </g>
   </g>
   <g id="patch_3">
    <path d="M 58.523438 284.4 
L 58.523438 7.2 
" style="fill: none; stroke: #000000; stroke-width: 0.8; stroke-linejoin: miter; stroke-linecap: square"/>
   </g>
   <g id="patch_4">
    <path d="M 421.223437 284.4 
L 421.223437 7.2 
" style="fill: none; stroke: #000000; stroke-width: 0.8; stroke-linejoin: miter; stroke-linecap: square"/>
   </g>
   <g id="patch_5">
    <path d="M 58.523437 284.4 
L 421.223437 284.4 
" style="fill: none; stroke: #000000; stroke-width: 0.8; stroke-linejoin: miter; stroke-linecap: square"/>
   </g>
   <g id="patch_6">
    <path d="M 58.523437 7.2 
L 421.223437 7.2 
" style="fill: none; stroke: #000000; stroke-width: 0.8; stroke-linejoin: miter; stroke-linecap: square"/>
   </g>
   <g id="legend_1">
    <g id="PathCollection_3">
     <g>
      <use xlink:href="#m27e6b0333a" x="342.570312" y="21.173437" style="fill: #1f77b4; fill-opacity: 0.85; stroke: #1f77b4; stroke-opacity: 0.85"/>
     </g>
    </g>
    <g id="text_19">
     <!-- real -->
     <g transform="translate(360.570312 23.798437) scale(0.1 -0.1)">
      <defs>
       <path id="DejaVuSans-72" d="M 2631 2963 
Q 2534 3019 2420 3045 
Q 2306 3072 2169 3072 
Q 1681 3072 1420 2755 
Q 1159 2438 1159 1844 
L 1159 0 
L 581 0 
L 581 3500 
L 1159 3500 
L 1159 2956 
Q 1341 3275 1631 3429 
Q 1922 3584 2338 3584 
Q 2397 3584 2469 3576 
Q 2541 3569 2628 3553 
L 2631 2963 
z
" transform="scale(0.015625)"/>
       <path id="DejaVuSans-65" d="M 3597 1894 
L 3597 1613 
L 953 1613 
Q 991 1019 1311 708 
Q 1631 397 2203 397 
Q 2534 397 2845 478 
Q 3156 559 3463 722 
L 3463 178 
Q 3153 47 2828 -22 
Q 2503 -91 2169 -91 
Q 1331 -91 842 396 
Q 353 884 353 1716 
Q 353 2575 817 3079 
Q 1281 3584 2069 3584 
Q 2775 3584 3186 3129 
Q 3597 2675 3597 1894 
z
M 3022 2063 
Q 3016 2534 2758 2815 
Q 2500 3097 2075 3097 
Q 1594 3097 1305 2825 
Q 1016 2553 972 2059 
L 3022 2063 
z
" transform="scale(0.015625)"/>
       <path id="DejaVuSans-61" d="M 2194 1759 
Q 1497 1759 1228 1600 
Q 959 1441 959 1056 
Q 959 750 1161 570 
Q 1363 391 1709 391 
Q 2188 391 2477 730 
Q 2766 1069 2766 1631 
L 2766 1759 
L 2194 1759 
z
M 3341 1997 
L 3341 0 
L 2766 0 
L 2766 531 
Q 2569 213 2275 61 
Q 1981 -91 1556 -91 
Q 1019 -91 701 211 
Q 384 513 384 1019 
Q 384 1609 779 1909 
Q 1175 2209 1959 2209 
L 2766 2209 
L 2766 2266 
Q 2766 2663 2505 2880 
Q 2244 3097 1772 3097 
Q 1472 3097 1187 3025 
Q 903 2953 641 2809 
L 641 3341 
Q 956 3463 1253 3523 
Q 1550 3584 1831 3584 
Q 2591 3584 2966 3190 
Q 3341 2797 3341 1997 
z
" transform="scale(0.015625)"/>
       <path id="DejaVuSans-6c" d="M 603 4863 
L 1178 4863 
L 1178 0 
L 603 0 
L 603 4863 
z
" transform="scale(0.015625)"/>
      </defs>
      <use xlink:href="#DejaVuSans-72"/>
      <use xlink:href="#DejaVuSans-65" x="38.863281"/>
      <use xlink:href="#DejaVuSans-61" x="100.386719"/>
      <use xlink:href="#DejaVuSans-6c" x="161.666016"/>
     </g>
    </g>
    <g id="PathCollection_4">
     <g>
      <use xlink:href="#m451f608521" x="342.570312" y="35.851562" style="fill: #ff7f0e; fill-opacity: 0.85; stroke: #ff7f0e; stroke-opacity: 0.85"/>
     </g>
    </g>
    <g id="text_20">
     <!-- generated -->
     <g transform="translate(360.570312 38.476562) scale(0.1 -0.1)">
      <defs>
       <path id="DejaVuSans-67" d="M 2906 1791 
Q 2906 2416 2648 2759 
Q 2391 3103 1925 3103 
Q 1463 3103 1205 2759 
Q 947 2416 947 1791 
Q 947 1169 1205 825 
Q 1463 481 1925 481 
Q 2391 481 2648 825 
Q 2906 1169 2906 1791 
z
M 3481 434 
Q 3481 -459 3084 -895 
Q 2688 -1331 1869 -1331 
Q 1566 -1331 1297 -1286 
Q 1028 -1241 775 -1147 
L 775 -588 
Q 1028 -725 1275 -790 
Q 1522 -856 1778 -856 
Q 2344 -856 2625 -561 
Q 2906 -266 2906 331 
L 2906 616 
Q 2728 306 2450 153 
Q 2172 0 1784 0 
Q 1141 0 747 490 
Q 353 981 353 1791 
Q 353 2603 747 3093 
Q 1141 3584 1784 3584 
Q 2172 3584 2450 3431 
Q 2728 3278 2906 2969 
L 2906 3500 
L 3481 3500 
L 3481 434 
z
" transform="scale(0.015625)"/>
       <path id="DejaVuSans-6e" d="M 3513 2113 
L 3513 0 
L 2938 0 
L 2938 2094 
Q 2938 2591 2744 2837 
Q 2550 3084 2163 3084 
Q 1697 3084 1428 2787 
Q 1159 2491 1159 1978 
L 1159 0 
L 581 0 
L 581 3500 
L 1159 3500 
L 1159 2956 
Q 1366 3272 1645 3428 
Q 1925 3584 2291 3584 
Q 2894 3584 3203 3211 
Q 3513 2838 3513 2113 
z
" transform="scale(0.015625)"/>
       <path id="DejaVuSans-74" d="M 1172 4494 
L 1172 3500 
L 2356 3500 
L 2356 3053 
L 1172 3053 
L 1172 1153 
Q 1172 725 1289 603 
Q 1406 481 1766 481 
L 2356 481 
L 2356 0 
L 1766 0 
Q 1100 0 847 248 
Q 594 497 594 1153 
L 594 3053 
L 172 3053 
L 172 3500 
L 594 3500 
L 594 4494 
L 1172 4494 
z
" transform="scale(0.015625)"/>
       <path id="DejaVuSans-64" d="M 2906 2969 
L 2906 4863 
L 3481 4863 
L 3481 0 
L 2906 0 
L 2906 525 
Q 2725 213 2448 61 
Q 2172 -91 1784 -91 
Q 1150 -91 751 415 
Q 353 922 353 1747 
Q 353 2572 751 3078 
Q 1150 3584 1784 3584 
Q 2172 3584 2448 3432 
Q 2725 3281 2906 2969 
z
M 947 1747 
Q 947 1113 1208 752 
Q 1469 391 1925 391 
Q 2381 391 2643 752 
Q 2906 1113 2906 1747 
Q 2906 2381 2643 2742 
Q 2381 3103 1925 3103 
Q 1469 3103 1208 2742 
Q 947 2381 947 1747 
z
" transform="scale(0.015625)"/>
      </defs>
      <use xlink:href="#DejaVuSans-67"/>
      <use xlink:href="#DejaVuSans-65" x="63.476562"/>
      <use xlink:href="#DejaVuSans-6e" x="125"/>
      <use xlink:href="#DejaVuSans-65" x="188.378906"/>
      <use xlink:href="#DejaVuSans-72" x="249.902344"/>
      <use xlink:href="#DejaVuSans-61" x="291.015625"/>
      <use xlink:href="#DejaVuSans-74" x="352.294922"/>
      <use xlink:href="#DejaVuSans-65" x="391.503906"/>
      <use xlink:href="#DejaVuSans-64" x="453.027344"/>
     </g>
    </g>
   </g>
  </g>
 </g>
 <defs>
  <clipPath id="p161fe5765c">
   <rect x="58.523438" y="7.2" width="362.7" height="277.2"/>
  </clipPath>
 </defs>
</svg>
